<?xml version="1.0" standalone="no"?>
<!DOCTYPE svg PUBLIC "-//W3C//DTD SVG 20010904//EN"
 "http://www.w3.org/TR/2001/REC-SVG-20010904/DTD/svg10.dtd">
<svg version="1.0" xmlns="http://www.w3.org/2000/svg"
 width="1920.000000pt" height="1920.000000pt" viewBox="0 0 1920.000000 1920.000000"
 preserveAspectRatio="xMidYMid meet">

<g transform="translate(0.000000,1920.000000) scale(0.100000,-0.100000)"
fill="#000000" stroke="none">
<path d="M17780 19193 c-30 -12 -65 -45 -87 -81 -53 -86 -7 -210 90 -245 16
-6 17 -305 17 -6084 0 -3343 -4 -6083 -8 -6089 -4 -6 -23 -16 -43 -23 -95 -31
-159 -127 -159 -236 0 -101 48 -182 135 -228 57 -30 173 -30 231 0 124 66 172
211 110 337 -28 57 -90 117 -136 131 -14 4 -31 12 -38 17 -10 8 -12 1233 -12
6083 l0 6073 48 35 c79 57 104 145 63 225 -29 56 -75 86 -141 89 -30 1 -62 0
-70 -4z"/>
<path d="M15188 15530 c-120 -65 -122 -248 -3 -304 l35 -17 0 -1122 0 -1122
652 -651 651 -652 -18 -39 c-62 -129 -4 -278 134 -343 l51 -23 0 -2591 c1
-2021 3 -2594 13 -2606 11 -14 429 -375 1187 -1024 140 -120 316 -271 390
-336 74 -64 244 -210 378 -324 l242 -207 0 -1827 0 -1827 -60 -28 c-108 -50
-167 -166 -141 -280 13 -61 31 -90 95 -157 l48 -50 94 0 c56 0 94 4 94 10 0 6
7 10 15 10 18 0 126 96 140 125 6 11 12 64 14 117 l3 97 -59 59 c-37 37 -76
65 -106 77 l-47 18 0 1843 0 1843 -67 60 c-38 33 -187 162 -333 287 -366 315
-862 742 -1125 968 -121 104 -325 279 -452 389 l-233 199 0 2577 0 2577 38 18
c118 56 166 125 166 241 0 52 -5 80 -21 110 -64 121 -208 177 -322 125 -24
-11 -48 -20 -55 -20 -6 0 -296 285 -644 634 l-632 633 0 1101 0 1101 42 28
c110 74 116 204 15 287 -48 39 -125 46 -179 16z"/>
<path d="M15459 10837 c-55 -37 -79 -81 -79 -146 0 -69 31 -121 90 -151 l40
-20 0 -878 c0 -482 -4 -882 -8 -887 -4 -6 -35 -27 -69 -47 l-63 -37 -27 23
c-136 114 -327 76 -399 -79 -58 -124 -13 -264 107 -330 70 -38 171 -42 235 -8
48 26 100 82 122 132 14 33 20 136 11 170 -3 9 26 32 76 63 43 26 83 54 87 61
4 6 8 418 8 914 l0 902 28 15 c91 47 125 143 82 232 -43 88 -163 124 -241 71z"/>
<path d="M14598 10209 c-89 -46 -118 -165 -60 -245 16 -21 42 -46 58 -54 16
-8 31 -18 34 -22 3 -3 4 -770 3 -1705 -2 -934 0 -1726 3 -1759 l5 -62 202
-183 c110 -101 366 -335 567 -519 485 -444 900 -822 1035 -945 61 -55 193
-176 295 -270 102 -94 293 -269 425 -389 237 -216 240 -219 246 -265 3 -25 5
-497 5 -1048 l-1 -1003 -360 -360 -360 -360 -1395 0 -1395 0 -770 770 -770
770 -1727 0 -1727 0 -30 64 c-47 98 -127 149 -233 147 -71 -1 -122 -21 -172
-69 -54 -52 -76 -104 -76 -182 0 -108 52 -189 152 -235 64 -30 111 -31 178 -6
78 30 116 64 150 136 l31 65 1707 0 1707 0 775 -775 775 -775 1430 0 1429 0
383 385 383 384 0 1084 0 1084 -87 79 c-97 87 -815 743 -1098 1004 -100 91
-354 323 -565 515 -211 193 -448 409 -525 480 -78 72 -223 204 -323 295 l-182
165 0 1737 c0 1377 3 1739 13 1748 6 6 26 20 44 30 48 28 76 91 71 155 -10
121 -142 192 -250 134z"/>
<path d="M13565 7855 c-71 -39 -105 -90 -105 -160 0 -58 31 -120 73 -145 18
-10 38 -24 45 -30 9 -8 12 -135 12 -568 l0 -557 1430 -1430 1430 -1430 0 -626
0 -625 -55 -23 c-60 -25 -118 -82 -143 -140 -8 -20 -15 -63 -15 -96 1 -150
125 -266 271 -252 110 9 192 76 226 182 15 49 16 64 6 108 -24 102 -89 179
-176 207 l-34 12 0 650 0 650 -1421 1421 c-781 781 -1425 1431 -1430 1445 -11
28 -12 1052 -1 1068 4 5 24 20 45 33 134 82 80 300 -79 317 -34 4 -58 0 -79
-11z"/>
<path d="M6302 4399 c-56 -11 -103 -40 -147 -91 -46 -54 -59 -97 -53 -179 5
-64 19 -99 69 -170 9 -12 -17 -64 -133 -265 -79 -137 -216 -374 -304 -526
l-159 -278 -1166 0 -1167 0 -12 30 c-39 93 -174 128 -255 65 -55 -41 -71 -83
-67 -174 2 -45 71 -115 128 -130 69 -18 159 22 188 84 9 19 20 35 24 35 4 0
522 0 1152 0 630 0 1164 3 1187 6 l42 6 292 507 c161 278 304 524 317 547 24
40 26 41 66 33 124 -22 263 61 292 175 l6 26 1497 1 c823 0 1566 2 1651 3 85
1 167 0 182 -2 22 -4 42 -32 133 -191 60 -102 129 -222 155 -266 26 -44 82
-142 126 -217 63 -110 85 -140 108 -148 19 -6 389 -10 1080 -10 l1051 0 775
-775 775 -775 716 0 c681 0 717 1 732 18 16 17 17 79 17 689 l0 670 46 18 c91
34 163 135 164 226 0 146 -113 263 -255 262 -70 0 -117 -18 -170 -64 -135
-119 -102 -338 64 -418 l56 -26 0 -640 0 -640 -670 -3 -670 -2 -775 775 -775
775 -1061 0 c-998 0 -1062 1 -1076 18 -8 9 -70 114 -138 232 -68 118 -166 289
-218 380 -53 91 -102 173 -110 183 -14 16 -108 17 -1712 17 l-1697 0 -11 39
c-7 21 -30 59 -52 84 -64 72 -150 104 -238 86z"/>
<path d="M18182 2967 c-46 -14 -117 -80 -141 -130 -63 -130 9 -305 144 -350
l40 -14 3 -643 2 -644 -447 -448 -448 -448 -2565 0 -2565 0 -795 795 -795 795
-2276 0 -2277 0 -12 29 c-22 55 -95 101 -160 101 -46 0 -107 -36 -136 -80 -36
-54 -37 -135 -2 -186 32 -47 116 -89 165 -81 50 8 111 51 130 92 l17 35 1770
2 c974 2 1990 1 2259 -2 l487 -5 793 -792 793 -793 2600 0 2599 0 472 472 471
473 6 665 c3 366 5 665 6 666 0 0 17 6 38 12 52 16 116 73 143 129 28 57 29
148 4 211 -21 52 -99 124 -153 140 -47 14 -124 14 -170 -1z"/>
<path d="M10112 1281 c-66 -23 -124 -78 -152 -142 l-21 -49 -4727 0 c-2600 0
-4757 -3 -4793 -6 l-66 -7 -24 43 c-31 55 -90 90 -153 90 -80 0 -143 -49 -167
-130 -21 -68 23 -160 92 -195 36 -19 112 -19 147 -1 31 16 74 61 91 94 l12 22
4796 -2 4796 -3 14 -40 c46 -139 219 -208 352 -140 83 42 140 130 141 217 1
180 -173 308 -338 249z"/>
</g>
</svg>
